<svg width="162" height="80" viewBox="0 0 162 80" fill="none" xmlns="http://www.w3.org/2000/svg">
<g clip-path="url(#clip0_20_908)">
<path d="M2.05616 79.8164C1.93754 79.8164 1.8321 79.777 1.73984 79.6852C1.64757 79.5934 1.60803 79.4885 1.60803 79.3705V67.3442C1.60803 67.2131 1.64757 67.0951 1.73984 67.0164C1.8321 66.9246 1.93754 66.8852 2.05616 66.8852H3.47965C3.65099 66.8852 3.78279 66.9246 3.86188 67.0033C3.94096 67.0819 3.99368 67.1475 4.02004 67.1737L9.37127 75.4492V67.3442C9.37127 67.2131 9.41081 67.0951 9.4899 67.0164C9.56898 66.9246 9.67442 66.8852 9.81941 66.8852H11.3747C11.5065 66.8852 11.6251 66.9246 11.7042 67.0164C11.7965 67.1082 11.836 67.2131 11.836 67.3442V79.3574C11.836 79.4885 11.7965 79.6065 11.7042 79.6852C11.6119 79.777 11.5065 79.8164 11.3879 79.8164H9.93803C9.76668 79.8164 9.63488 79.777 9.56898 79.6852C9.4899 79.5934 9.43717 79.541 9.39763 79.5147L4.07276 71.4229V79.3705C4.07276 79.4885 4.03322 79.5934 3.94096 79.6852C3.8487 79.777 3.74325 79.8164 3.61145 79.8164H2.05616Z" fill="white"/>
<path d="M19.7574 80C18.6107 80 17.6353 79.8033 16.8313 79.3967C16.0273 78.9901 15.421 78.4262 14.9993 77.6787C14.5775 76.9311 14.3403 76.0393 14.2875 74.9901C14.2875 74.4787 14.2744 73.941 14.2744 73.3639C14.2744 72.7869 14.2744 72.236 14.2875 71.6983C14.3403 70.6623 14.5775 69.7705 14.9993 69.0229C15.421 68.2754 16.0405 67.6983 16.8313 67.2918C17.6353 66.8983 18.5975 66.6885 19.7442 66.6885C20.5878 66.6885 21.339 66.7934 22.0112 67.0164C22.6834 67.2393 23.2502 67.541 23.7247 67.9344C24.1992 68.3279 24.555 68.7738 24.8187 69.2983C25.0823 69.8229 25.2141 70.3738 25.2272 70.977C25.2272 71.082 25.2009 71.1869 25.1218 71.2524C25.0427 71.3311 24.9505 71.3574 24.8318 71.3574H23.0657C22.9339 71.3574 22.8152 71.318 22.7362 71.2524C22.6439 71.1869 22.5912 71.0688 22.5516 70.9115C22.3539 70.0983 22.0112 69.5475 21.5367 69.2459C21.0622 68.9442 20.4559 68.8 19.731 68.8C18.9007 68.8 18.2416 69.0361 17.7408 69.4951C17.2399 69.9541 16.9763 70.7147 16.9368 71.777C16.8972 72.7869 16.8972 73.8229 16.9368 74.8852C16.9763 75.9475 17.2399 76.7082 17.7408 77.1672C18.2416 77.6262 18.9007 77.8623 19.731 77.8623C20.4428 77.8623 21.0491 77.7049 21.5367 77.4033C22.0244 77.1016 22.3671 76.5508 22.5516 75.7508C22.5912 75.5803 22.6571 75.4623 22.7362 75.3967C22.8284 75.3311 22.9339 75.3049 23.0657 75.3049H24.8318C24.9373 75.3049 25.0427 75.3442 25.1218 75.4098C25.2009 75.4885 25.2404 75.5803 25.2272 75.6852C25.2272 76.2885 25.0823 76.8524 24.8187 77.3639C24.555 77.8754 24.1992 78.3344 23.7247 78.7279C23.2502 79.1213 22.6834 79.4229 22.0112 79.6459C21.339 79.8688 20.5878 79.9738 19.7442 79.9738L19.7574 80Z" fill="white"/>
<path d="M32.4369 80C31.3298 80 30.3939 79.8164 29.5899 79.4492C28.7991 79.082 28.1796 78.5311 27.7315 77.7705C27.2834 77.0098 27.0461 76.0656 27.0066 74.9377C27.0066 74.4131 26.9934 73.8885 26.9934 73.3639C26.9934 72.8393 26.9934 72.3147 27.0066 71.777C27.0461 70.6623 27.2966 69.718 27.7447 68.9705C28.206 68.2229 28.8255 67.659 29.6295 67.2656C30.4335 66.8852 31.3561 66.6885 32.4237 66.6885C33.4913 66.6885 34.4271 66.8852 35.2311 67.2656C36.0351 67.6459 36.6678 68.2098 37.1291 68.9705C37.5904 69.718 37.8409 70.6623 37.8672 71.777C37.8936 72.3147 37.9068 72.8524 37.9068 73.3639C37.9068 73.8754 37.9068 74.4 37.8672 74.9377C37.8277 76.0656 37.5904 77.0098 37.1423 77.7705C36.6942 78.5311 36.0747 79.082 35.2707 79.4492C34.4667 79.8164 33.5177 80 32.4237 80H32.4369ZM32.4369 77.8754C33.2409 77.8754 33.8999 77.6393 34.4008 77.1672C34.9016 76.6951 35.1784 75.9213 35.218 74.8459C35.2443 74.3082 35.2575 73.7967 35.2575 73.3377C35.2575 72.8787 35.2575 72.3803 35.218 71.8557C35.1916 71.1475 35.0598 70.5574 34.8226 70.1115C34.5853 69.6656 34.2558 69.3377 33.8472 69.1279C33.4386 68.918 32.9641 68.8262 32.4369 68.8262C31.9097 68.8262 31.4484 68.9311 31.0398 69.1279C30.6312 69.3246 30.3017 69.6524 30.0644 70.1115C29.8272 70.5574 29.6954 71.1475 29.669 71.8557C29.669 72.3803 29.6558 72.8787 29.6558 73.3377C29.6558 73.7967 29.6558 74.2951 29.669 74.8459C29.7086 75.9213 29.9854 76.6951 30.4862 77.1672C30.9871 77.6393 31.6461 77.8754 32.4369 77.8754Z" fill="white"/>
<path d="M45.3932 80C44.2597 80 43.2844 79.8033 42.4804 79.4098C41.6764 79.0164 41.0569 78.4524 40.622 77.7049C40.187 76.9574 39.9498 76.0656 39.9102 75.0295C39.9102 74.5049 39.897 73.9279 39.897 73.3246C39.897 72.7213 39.897 72.1443 39.9102 71.5934C39.9498 70.5705 40.187 69.6918 40.622 68.9705C41.0569 68.2492 41.6896 67.6852 42.4936 67.2918C43.3108 66.8984 44.2597 66.7016 45.3801 66.7016C46.2895 66.7016 47.0803 66.8197 47.7525 67.0557C48.4247 67.2918 49.0047 67.6065 49.4528 67.9738C49.9009 68.341 50.2436 68.7475 50.4809 69.1803C50.7181 69.6131 50.8236 70.0065 50.8367 70.3869C50.8367 70.4918 50.8236 70.5836 50.7445 70.6623C50.6654 70.741 50.5731 70.7672 50.4413 70.7672H48.5302C48.4116 70.7672 48.3193 70.741 48.2534 70.6885C48.1875 70.6361 48.1348 70.5705 48.082 70.4656C47.9766 70.2033 47.8316 69.9541 47.6207 69.7049C47.4098 69.4557 47.1199 69.2459 46.764 69.0623C46.4081 68.8918 45.9468 68.8 45.3669 68.8C44.5233 68.8 43.8511 69.0229 43.3503 69.4688C42.8494 69.9147 42.5858 70.6492 42.5463 71.6721C42.5067 72.7475 42.5067 73.8229 42.5463 74.9246C42.5858 75.9738 42.8626 76.7213 43.3767 77.1803C43.8907 77.6393 44.5629 77.8623 45.4064 77.8623C45.96 77.8623 46.4609 77.7574 46.8958 77.5606C47.3308 77.3639 47.6866 77.0623 47.9371 76.6426C48.1875 76.2229 48.3193 75.6852 48.3193 75.0295V74.4524H46.0523C45.9336 74.4524 45.8282 74.4131 45.7359 74.3213C45.6437 74.2295 45.6041 74.1246 45.6041 73.9934V73.0098C45.6041 72.8787 45.6437 72.7606 45.7359 72.682C45.8282 72.5902 45.9336 72.5508 46.0523 72.5508H50.4941C50.6259 72.5508 50.7445 72.5902 50.8236 72.682C50.9026 72.7738 50.9422 72.8787 50.9422 73.0098V74.9508C50.9422 75.9869 50.7181 76.8787 50.27 77.6262C49.8219 78.3738 49.176 78.9508 48.3457 79.3574C47.5153 79.7639 46.5268 79.9738 45.3801 79.9738L45.3932 80Z" fill="white"/>
<path d="M58.0464 79.8164C57.9278 79.8164 57.8223 79.777 57.7301 79.6852C57.6378 79.5934 57.5983 79.4885 57.5983 79.3705V67.3442C57.5983 67.2131 57.6378 67.0951 57.7301 67.0164C57.8223 66.9246 57.9278 66.8852 58.0464 66.8852H66.2182C66.35 66.8852 66.4687 66.9246 66.5477 67.0164C66.64 67.1082 66.6795 67.2131 66.6795 67.3442V68.5639C66.6795 68.6819 66.64 68.7869 66.5477 68.8787C66.4555 68.9705 66.35 69.0098 66.2182 69.0098H60.1157V72.2754H65.8096C65.9414 72.2754 66.0601 72.3147 66.1391 72.3934C66.2314 72.4721 66.271 72.577 66.271 72.7213V73.8623C66.271 73.9934 66.2314 74.1115 66.1391 74.1901C66.0469 74.2688 65.9414 74.3082 65.8096 74.3082H60.1157V77.6918H66.3764C66.5082 77.6918 66.6268 77.7311 66.7059 77.8229C66.7982 77.9147 66.8377 78.0196 66.8377 78.1508V79.3705C66.8377 79.4885 66.7982 79.5934 66.7059 79.6852C66.6136 79.777 66.5082 79.8164 66.3764 79.8164H58.0596H58.0464Z" fill="white"/>
<path d="M71.7277 80C71.0818 80 70.5019 79.8688 69.9879 79.6197C69.4738 79.3705 69.0521 79.0295 68.7489 78.6098C68.4458 78.1901 68.3008 77.7049 68.3008 77.1803C68.3008 76.3147 68.6567 75.6328 69.3552 75.1213C70.067 74.6098 70.9764 74.2688 72.1231 74.0983L74.6669 73.7311V73.3377C74.6669 72.8262 74.5351 72.4197 74.2715 72.1311C74.0079 71.8426 73.5598 71.7115 72.9403 71.7115C72.4921 71.7115 72.1363 71.8033 71.8595 71.9738C71.5827 72.1442 71.3718 72.3934 71.24 72.6819C71.1346 72.8393 71.0028 72.918 70.8182 72.918H69.3552C69.2234 72.918 69.118 72.8787 69.0521 72.8131C68.9862 72.7344 68.9466 72.6426 68.9466 72.5115C68.9466 72.3147 69.0389 72.0787 69.197 71.7901C69.3552 71.5016 69.5925 71.2393 69.9088 70.9639C70.2251 70.6885 70.6337 70.4787 71.1477 70.2951C71.6618 70.1115 72.2681 70.0197 72.9798 70.0197C73.7575 70.0197 74.4165 70.1115 74.9569 70.3082C75.4973 70.5049 75.919 70.7541 76.2485 71.0688C76.5649 71.3836 76.8021 71.7639 76.9603 72.1967C77.1053 72.6295 77.1844 73.0885 77.1844 73.5606V79.3574C77.1844 79.4754 77.1448 79.5803 77.0526 79.6721C76.9603 79.7639 76.8548 79.8033 76.7362 79.8033H75.2337C75.1019 79.8033 74.9832 79.7639 74.9042 79.6721C74.8251 79.5803 74.7855 79.4754 74.7855 79.3574V78.636C74.6274 78.859 74.4033 79.0688 74.1397 79.2787C73.8629 79.4885 73.5334 79.659 73.1512 79.7901C72.7689 79.9213 72.2944 79.9869 71.7672 79.9869L71.7277 80ZM72.3603 78.2426C72.7953 78.2426 73.1907 78.1508 73.5334 77.9672C73.8893 77.7836 74.166 77.4951 74.3638 77.1016C74.5615 76.7082 74.6669 76.2229 74.6669 75.6328V75.2393L72.8085 75.541C72.0836 75.6459 71.53 75.8295 71.1741 76.0787C70.8182 76.3278 70.6337 76.6295 70.6337 76.9836C70.6337 77.259 70.7128 77.4819 70.8841 77.6787C71.0555 77.8754 71.2664 78.0065 71.53 78.0983C71.7936 78.1901 72.0572 78.2426 72.3472 78.2426H72.3603Z" fill="white"/>
<path d="M79.9653 79.8164C79.8467 79.8164 79.7413 79.777 79.649 79.6852C79.5568 79.5934 79.5172 79.4885 79.5172 79.3705V70.6623C79.5172 70.5311 79.5568 70.4131 79.649 70.3344C79.7413 70.2426 79.8467 70.2033 79.9653 70.2033H81.4679C81.5865 70.2033 81.7052 70.2426 81.7974 70.3344C81.8897 70.4262 81.9424 70.5311 81.9424 70.6623V71.423C82.2324 71.0295 82.6014 70.7279 83.0495 70.518C83.4977 70.3082 84.0249 70.2033 84.618 70.2033H85.3825C85.5143 70.2033 85.6329 70.2426 85.712 70.3344C85.7911 70.4262 85.8306 70.5311 85.8306 70.6492V71.9738C85.8306 72.0918 85.7911 72.1967 85.712 72.2885C85.6329 72.3803 85.5275 72.4197 85.3825 72.4197H83.9326C83.3395 72.4197 82.8782 72.577 82.5487 72.9049C82.2192 73.2328 82.061 73.6918 82.061 74.282V79.3574C82.061 79.4754 82.0215 79.5803 81.9292 79.6721C81.837 79.7639 81.7315 79.8033 81.5997 79.8033H79.9785L79.9653 79.8164Z" fill="white"/>
<path d="M91.6301 79.8164C90.8919 79.8164 90.2593 79.6852 89.7584 79.4229C89.2576 79.1606 88.8754 78.7803 88.6249 78.2688C88.3745 77.7574 88.2559 77.1147 88.2559 76.3541V72.1574H86.7929C86.6742 72.1574 86.5688 72.118 86.4765 72.0262C86.3843 71.9344 86.3447 71.8295 86.3447 71.6983V70.6492C86.3447 70.5311 86.3843 70.4262 86.4765 70.3344C86.5688 70.2426 86.6742 70.2033 86.7929 70.2033H88.2559V67.1344C88.2559 67.0164 88.2954 66.9115 88.3745 66.8197C88.4536 66.7279 88.559 66.6885 88.704 66.6885H90.2066C90.3252 66.6885 90.4306 66.7279 90.5229 66.8197C90.6152 66.9115 90.6547 67.0164 90.6547 67.1344V70.2033H92.9745C93.0931 70.2033 93.1985 70.2426 93.2908 70.3344C93.383 70.4262 93.4226 70.5311 93.4226 70.6492V71.6983C93.4226 71.8295 93.383 71.9475 93.2908 72.0262C93.1985 72.118 93.0931 72.1574 92.9745 72.1574H90.6547V76.1705C90.6547 76.682 90.747 77.0754 90.9183 77.3508C91.1028 77.6393 91.406 77.7705 91.8541 77.7705H93.1326C93.2512 77.7705 93.3567 77.8098 93.4489 77.9016C93.5412 77.9934 93.5808 78.0983 93.5808 78.2164V79.3574C93.5808 79.4754 93.5412 79.5803 93.4489 79.6721C93.3567 79.7639 93.2512 79.8033 93.1326 79.8033H91.6301V79.8164Z" fill="white"/>
<path d="M95.7028 79.8164C95.5842 79.8164 95.4787 79.777 95.3865 79.6852C95.2942 79.5934 95.2546 79.4885 95.2546 79.3705V67.1344C95.2546 67.0164 95.2942 66.9115 95.3865 66.8197C95.4787 66.7279 95.5842 66.6885 95.7028 66.6885H97.3503C97.4821 66.6885 97.5876 66.7279 97.6798 66.8197C97.7589 66.9115 97.7985 67.0164 97.7985 67.1344V71.3442C98.128 70.9508 98.5366 70.636 99.0242 70.3869C99.5119 70.1377 100.105 70.0197 100.804 70.0197C101.555 70.0197 102.214 70.1901 102.781 70.5311C103.347 70.8721 103.782 71.3442 104.085 71.9606C104.389 72.577 104.547 73.3115 104.547 74.177V79.3705C104.547 79.4885 104.507 79.5934 104.415 79.6852C104.323 79.777 104.217 79.8164 104.099 79.8164H102.425C102.306 79.8164 102.201 79.777 102.108 79.6852C102.016 79.5934 101.977 79.4885 101.977 79.3705V74.2951C101.977 73.5869 101.805 73.0229 101.449 72.6164C101.094 72.2098 100.58 72.0131 99.9205 72.0131C99.2615 72.0131 98.7606 72.2098 98.3652 72.6164C97.9698 73.0229 97.7853 73.5869 97.7853 74.2951V79.3705C97.7853 79.4885 97.7457 79.5934 97.6667 79.6852C97.5876 79.777 97.4821 79.8164 97.3371 79.8164H95.6896H95.7028Z" fill="white"/>
<path d="M116.396 80C115.249 80 114.274 79.8033 113.47 79.3967C112.666 78.9901 112.06 78.4262 111.638 77.6787C111.216 76.9311 110.979 76.0393 110.926 74.9901C110.926 74.4787 110.913 73.941 110.913 73.3639C110.913 72.7869 110.913 72.236 110.926 71.6983C110.979 70.6623 111.216 69.7705 111.638 69.0229C112.06 68.2754 112.679 67.6983 113.47 67.2918C114.274 66.8983 115.236 66.6885 116.383 66.6885C117.226 66.6885 117.978 66.7934 118.65 67.0164C119.322 67.2393 119.889 67.541 120.363 67.9344C120.838 68.3279 121.194 68.7738 121.457 69.2983C121.721 69.8229 121.853 70.3738 121.866 70.977C121.866 71.082 121.839 71.1869 121.76 71.2524C121.681 71.3311 121.589 71.3574 121.47 71.3574H119.704C119.572 71.3574 119.454 71.318 119.375 71.2524C119.282 71.1869 119.23 71.0688 119.19 70.9115C118.992 70.0983 118.65 69.5475 118.175 69.2459C117.701 68.9442 117.094 68.8 116.37 68.8C115.539 68.8 114.88 69.0361 114.379 69.4951C113.878 69.9541 113.615 70.7147 113.575 71.777C113.536 72.7869 113.536 73.8229 113.575 74.8852C113.615 75.9475 113.878 76.7082 114.379 77.1672C114.88 77.6262 115.539 77.8623 116.37 77.8623C117.081 77.8623 117.688 77.7049 118.175 77.4033C118.663 77.1016 119.006 76.5508 119.19 75.7508C119.23 75.5803 119.296 75.4623 119.375 75.3967C119.467 75.3311 119.572 75.3049 119.704 75.3049H121.47C121.576 75.3049 121.681 75.3442 121.76 75.4098C121.839 75.4885 121.879 75.5803 121.866 75.6852C121.866 76.2885 121.721 76.8524 121.457 77.3639C121.194 77.8754 120.838 78.3344 120.363 78.7279C119.889 79.1213 119.322 79.4229 118.65 79.6459C117.978 79.8688 117.226 79.9738 116.383 79.9738L116.396 80Z" fill="white"/>
<path d="M124.33 79.8164C124.212 79.8164 124.106 79.777 124.014 79.6852C123.922 79.5934 123.882 79.4885 123.882 79.3705V67.1344C123.882 67.0164 123.922 66.9115 124.014 66.8197C124.106 66.7279 124.212 66.6885 124.33 66.6885H125.978C126.11 66.6885 126.215 66.7279 126.308 66.8197C126.387 66.9115 126.426 67.0164 126.426 67.1344V71.3442C126.756 70.9508 127.164 70.636 127.652 70.3869C128.14 70.1377 128.733 70.0197 129.431 70.0197C130.183 70.0197 130.842 70.1901 131.408 70.5311C131.975 70.8721 132.41 71.3442 132.713 71.9606C133.016 72.577 133.174 73.3115 133.174 74.177V79.3705C133.174 79.4885 133.135 79.5934 133.043 79.6852C132.95 79.777 132.845 79.8164 132.726 79.8164H131.052C130.934 79.8164 130.828 79.777 130.736 79.6852C130.644 79.5934 130.604 79.4885 130.604 79.3705V74.2951C130.604 73.5869 130.433 73.0229 130.077 72.6164C129.721 72.2098 129.207 72.0131 128.548 72.0131C127.889 72.0131 127.388 72.2098 126.993 72.6164C126.597 73.0229 126.413 73.5869 126.413 74.2951V79.3705C126.413 79.4885 126.373 79.5934 126.294 79.6852C126.215 79.777 126.11 79.8164 125.965 79.8164H124.317H124.33Z" fill="white"/>
<path d="M138.341 80C137.695 80 137.115 79.8688 136.601 79.6197C136.087 79.3705 135.666 79.0295 135.362 78.6098C135.059 78.1901 134.914 77.7049 134.914 77.1803C134.914 76.3147 135.27 75.6328 135.969 75.1213C136.68 74.6098 137.59 74.2688 138.737 74.0983L141.28 73.7311V73.3377C141.28 72.8262 141.149 72.4197 140.885 72.1311C140.621 71.8426 140.173 71.7115 139.554 71.7115C139.106 71.7115 138.75 71.8033 138.473 71.9738C138.196 72.1442 137.985 72.3934 137.854 72.6819C137.748 72.8393 137.616 72.918 137.432 72.918H135.969C135.837 72.918 135.731 72.8787 135.666 72.8131C135.6 72.7344 135.56 72.6426 135.56 72.5115C135.56 72.3147 135.652 72.0787 135.811 71.7901C135.969 71.5016 136.206 71.2393 136.522 70.9639C136.839 70.6885 137.247 70.4787 137.761 70.2951C138.275 70.1115 138.882 70.0197 139.593 70.0197C140.371 70.0197 141.03 70.1115 141.57 70.3082C142.111 70.5049 142.533 70.7541 142.862 71.0688C143.178 71.3836 143.416 71.7639 143.574 72.1967C143.719 72.6295 143.798 73.0885 143.798 73.5606V79.3574C143.798 79.4754 143.758 79.5803 143.666 79.6721C143.574 79.7639 143.468 79.8033 143.35 79.8033H141.847C141.715 79.8033 141.597 79.7639 141.518 79.6721C141.439 79.5803 141.399 79.4754 141.399 79.3574V78.636C141.241 78.859 141.017 79.0688 140.753 79.2787C140.476 79.4885 140.147 79.659 139.765 79.7901C139.382 79.9213 138.908 79.9869 138.381 79.9869L138.341 80ZM138.974 78.2426C139.409 78.2426 139.804 78.1508 140.147 77.9672C140.503 77.7836 140.78 77.4951 140.977 77.1016C141.175 76.7082 141.28 76.2229 141.28 75.6328V75.2393L139.422 75.541C138.697 75.6459 138.143 75.8295 137.788 76.0787C137.432 76.3278 137.247 76.6295 137.247 76.9836C137.247 77.259 137.326 77.4819 137.498 77.6787C137.669 77.8754 137.88 78.0065 138.143 78.0983C138.407 78.1901 138.671 78.2426 138.961 78.2426H138.974Z" fill="white"/>
<path d="M146.513 68.6164C146.394 68.6164 146.289 68.577 146.197 68.4852C146.104 68.3934 146.065 68.2885 146.065 68.1705V66.8459C146.065 66.7279 146.104 66.6229 146.197 66.5311C146.289 66.4393 146.394 66.4 146.513 66.4H148.2C148.332 66.4 148.451 66.4393 148.53 66.5311C148.622 66.6229 148.661 66.7279 148.661 66.8459V68.1705C148.661 68.2885 148.622 68.3934 148.53 68.4852C148.437 68.577 148.332 68.6164 148.2 68.6164H146.513ZM146.592 79.8164C146.474 79.8164 146.368 79.777 146.276 79.6852C146.184 79.5934 146.144 79.4885 146.144 79.3705V70.6492C146.144 70.5311 146.184 70.4262 146.276 70.3344C146.368 70.2426 146.474 70.2033 146.592 70.2033H148.134C148.266 70.2033 148.372 70.2426 148.464 70.3344C148.543 70.4262 148.582 70.5311 148.582 70.6492V79.3705C148.582 79.4885 148.543 79.5934 148.464 79.6852C148.385 79.777 148.279 79.8164 148.134 79.8164H146.592Z" fill="white"/>
<path d="M151.864 79.8164C151.746 79.8164 151.64 79.777 151.548 79.6852C151.456 79.5934 151.416 79.4885 151.416 79.3705V70.6492C151.416 70.5311 151.456 70.4262 151.548 70.3344C151.64 70.2426 151.746 70.2033 151.864 70.2033H153.393C153.512 70.2033 153.617 70.2426 153.71 70.3344C153.802 70.4262 153.841 70.5311 153.841 70.6492V71.4098C154.158 71.0164 154.579 70.6885 155.08 70.4262C155.581 70.1639 156.201 70.0328 156.952 70.0328C157.703 70.0328 158.362 70.2033 158.916 70.5443C159.469 70.8852 159.904 71.3574 160.207 71.9738C160.511 72.5902 160.669 73.3246 160.669 74.1902V79.3836C160.669 79.5016 160.629 79.6065 160.537 79.6983C160.445 79.7902 160.339 79.8295 160.221 79.8295H158.586C158.468 79.8295 158.362 79.7902 158.27 79.6983C158.178 79.6065 158.138 79.5016 158.138 79.3836V74.3082C158.138 73.6 157.967 73.0361 157.611 72.6295C157.255 72.2229 156.741 72.0262 156.082 72.0262C155.423 72.0262 154.922 72.2229 154.54 72.6295C154.158 73.0361 153.96 73.6 153.96 74.3082V79.3836C153.96 79.5016 153.92 79.6065 153.828 79.6983C153.736 79.7902 153.63 79.8295 153.512 79.8295H151.877L151.864 79.8164Z" fill="white"/>
<path d="M56.5306 5.54755C61.012 10.3607 63.9644 12.3934 68.0107 16.341C80.3476 16.341 92.6712 16.341 105.008 16.341V5.54755C88.8489 5.54755 72.6898 5.54755 56.5306 5.54755Z" fill="white"/>
<path d="M105.179 16.4984H67.9449L67.8922 16.4459C66.2841 14.8721 64.8211 13.5869 63.4108 12.341C61.2888 10.4787 59.1008 8.55081 56.412 5.65245L56.1616 5.37704H105.193V16.4984H105.179ZM68.0767 16.1705H104.85V5.70491H56.9129C59.4831 8.4459 61.5919 10.2951 63.6349 12.0918C65.032 13.3246 66.4819 14.6098 68.0899 16.1574L68.0767 16.1705Z" fill="white"/>
<path d="M56.5306 43.6066C61.012 48.4197 63.9644 50.4525 68.0107 54.4C80.3476 54.4 92.6712 54.4 105.008 54.4V43.6066C88.8489 43.6066 72.6898 43.6066 56.5306 43.6066Z" fill="white"/>
<path d="M105.179 54.5705H67.9449L67.8922 54.518C66.2841 52.9443 64.8211 51.659 63.3976 50.4131C61.2756 48.5508 59.0877 46.623 56.3989 43.7246L56.1484 43.4492H105.179V54.5705ZM68.0767 54.2426H104.85V43.7771H56.9129C59.4831 46.518 61.5919 48.3672 63.6349 50.1639C65.032 51.3967 66.4819 52.6689 68.0899 54.2295L68.0767 54.2426Z" fill="white"/>
<path d="M62.9759 30.3082C65.1111 32.0525 67.5758 33.3639 69.5002 35.3836C80.374 35.3836 91.2478 35.3836 102.122 35.3836H105.021V24.5902H71.8199C67.3649 24.5902 62.9232 24.5902 58.4682 24.5902C57.941 24.5902 57.1897 24.341 57.1765 25.2197C59.1799 27.1344 61.4338 28.6164 62.9759 30.2951V30.3082Z" fill="white"/>
<path d="M105.179 35.541H69.421L69.3683 35.4885C68.1821 34.2426 66.7586 33.2459 65.3878 32.2885C64.5443 31.6984 63.6744 31.0951 62.8572 30.4262H62.844C62.0137 29.5082 60.9592 28.6557 59.8521 27.7508C58.9295 26.9902 57.9673 26.2164 57.0578 25.3377L57.0051 25.2852V25.2197C57.0051 24.9311 57.0842 24.7213 57.2424 24.5902C57.4928 24.3672 57.8619 24.3934 58.1782 24.4197C58.2836 24.4197 58.3627 24.4197 58.4681 24.4328C61.8819 24.4328 65.2956 24.4197 68.6961 24.4328H105.193V35.5541L105.179 35.541ZM69.566 35.2131H104.85V24.7475H68.6829C65.2824 24.7475 61.8687 24.7475 58.455 24.7475C58.3627 24.7475 58.2573 24.7475 58.1518 24.7344C57.8882 24.7082 57.5982 24.6951 57.4533 24.8262C57.3874 24.8918 57.3478 24.9967 57.3346 25.1541C58.2177 25.9934 59.1535 26.7541 60.063 27.5016C61.1833 28.4066 62.2377 29.259 63.0813 30.1902C63.8853 30.8459 64.742 31.4492 65.5855 32.0262C66.9563 32.9836 68.3798 33.9803 69.566 35.2131Z" fill="white"/>
<path d="M32.8982 18.7279L0.158142 0.275421V9.99345V52.223H8.67267L9.0549 15.0951L32.8982 28.8V18.7279Z" fill="white"/>
<path d="M8.84403 52.3934H0V0L0.250427 0.144262L33.0696 18.6361V29.0885L32.8191 28.9443L9.21308 15.3836L8.84403 52.3934ZM0.329509 52.0656H8.51452L8.89675 14.8197L9.14718 14.9639L32.7532 28.5246V18.8328L0.329509 0.563934V52.0656Z" fill="white"/>
<path d="M14.7884 39.423L47.5284 57.8754V48.1574V5.92789H39.0139L38.6449 43.0558L14.7884 29.3508V39.423Z" fill="white"/>
<path d="M47.6866 58.1508L47.4362 58.0066L14.6171 39.5148V29.0623L14.8675 29.2066L38.4735 42.7672L38.8426 5.75739H47.6866V58.1508ZM14.9466 39.3312L47.3571 57.6V6.08525H39.1721L38.8031 43.3312L38.5526 43.1869L14.9466 29.6262V39.318V39.3312Z" fill="white"/>
<path d="M161.776 49.4426C156.688 54.7672 149.558 58.1771 141.623 58.3869V44.7869C146.249 44.5246 150.335 42.2164 152.958 38.7541L161.776 49.4426Z" fill="white"/>
<path d="M141.465 58.5574V44.6295H141.623C146.065 44.3672 150.151 42.1902 152.826 38.6492L152.958 38.4787L153.09 38.6361L162 49.4295L161.895 49.5344C156.556 55.1213 149.36 58.3213 141.623 58.5312H141.452L141.465 58.5574ZM141.794 44.9443V58.2164C149.32 57.9672 156.332 54.8459 161.565 49.4295L152.971 39.0164C150.269 42.4918 146.21 44.6426 141.794 44.9443Z" fill="white"/>
<path d="M161.684 9.82297L152.866 20.4853C150.27 17.0885 146.21 14.8197 141.623 14.5836V0.957397C149.492 1.18035 156.609 4.53772 161.684 9.82297Z" fill="white"/>
<path d="M152.866 20.7475L152.734 20.5771C150.072 17.1016 146.025 14.9771 141.61 14.741H141.452V0.786896H141.623C149.32 1.00985 156.491 4.1705 161.802 9.70493L161.908 9.80985L161.815 9.92788L152.866 20.7475ZM141.794 14.4262C146.17 14.7016 150.19 16.8 152.879 20.223L161.473 9.83607C156.28 4.47214 149.294 1.39017 141.794 1.14099V14.4394V14.4262Z" fill="white"/>
<path d="M125.622 29.6787C125.622 35.2262 128.64 40.0918 133.161 42.7279V57.3639C120.93 54.0459 111.954 42.9115 111.954 29.6787C111.954 16.4459 120.93 5.31147 133.161 1.99344V16.6295C128.64 19.2656 125.622 24.1311 125.622 29.6787Z" fill="white"/>
<path d="M133.333 57.5738L133.122 57.5213C120.561 54.1246 111.796 42.6754 111.796 29.6787C111.796 16.682 120.561 5.23278 133.122 1.83606L133.333 1.7836V16.7213L133.254 16.7738C128.654 19.4492 125.793 24.4065 125.793 29.6787C125.793 34.9508 128.654 39.9082 133.254 42.5836L133.333 42.6361V57.5738ZM133.003 2.20327C120.706 5.63934 112.125 16.9049 112.125 29.6656C112.125 42.4262 120.706 53.7049 133.003 57.1279V42.8065C128.35 40.0525 125.464 35.0295 125.464 29.6656C125.464 24.3016 128.35 19.2656 133.003 16.5246V2.20327Z" fill="white"/>
</g>
<defs>
<clipPath id="clip0_20_908">
<rect width="162" height="80" fill="white"/>
</clipPath>
</defs>
</svg>
